# xmcd CD database file
# Copyright (C) 1993-1998 Ti Kan
#
# Track frame offsets:
#  150
#  13227
#  24857
#  36835
#  47997
#  58870
#  74765
#  86227
#  97805
#  113220
#  124670
#  143445
#  155217
#  167607
#  179405
#  190637
#  200180
#  212577
#  224255
#  236305
#  247352
#  258380
#  270455
#
# Disc length: 3745 seconds
#
# Revision: 2
# Processed by: cddbd v1.4PL0 Copyright (c) Steve Scherf et al.
# Submitted via: Gronk 1.4
#
DISCID=570e9f17
DTITLE=Bobby Bland - Two Steps From The Blues and Here's The Man
DYEAR=1900
DGENRE=blues
TTITLE0=36-22-36
TTITLE1=You're The One (That I Adore)
TTITLE2=Turn On Your Love Light
TTITLE3=Who Will The Next Fool Be
TTITLE4=You're Worth It All
TTITLE5=Blues In The Night
TTITLE6=Your Friends
TTITLE7=Ain't That Loving You
TTITLE8=Jelly Jelly Jelly
TTITLE9=Twistin' Up The Road
TTITLE10=Stormy Monday Blues
TTITLE11=Two Steps From The Blues
TTITLE12=Cry Cry Cry
TTITLE13=I'm Not Ashamed
TTITLE14=Don't Cry No More
TTITLE15=Lead Me On
TTITLE16=I Pity The Fool
TTITLE17=I've Just Got To Forget You
TTITLE18=Little Boy Blue
TTITLE19=St. James Infirmary
TTITLE20=I'll Take Care Of You
TTITLE21=I Don't Want No Woman
TTITLE22=I've Been Wrong So Long
EXTD=
EXTT0=
EXTT1=
EXTT2=
EXTT3=
EXTT4=
EXTT5=
EXTT6=
EXTT7=
EXTT8=
EXTT9=
EXTT10=
EXTT11=
EXTT12=
EXTT13=
EXTT14=
EXTT15=
EXTT16=
EXTT17=
EXTT18=
EXTT19=
EXTT20=
EXTT21=
EXTT22=
PLAYORDER=
